<svg version="1.0" xmlns="http://www.w3.org/2000/svg" width="130px" height="50px" viewBox="0 0 1200.000000 450.000000" preserveAspectRatio="xMidYMid meet">
<metadata>
Created by potrace 1.16, written by Peter Selinger 2001-2019
</metadata>
<g transform="translate(0.000000,450.000000) scale(0.100000,-0.100000)" fill="#000000" stroke="none">
<path d="M2098 4379 c-714 -55 -1349 -445 -1710 -1051 -397 -666 -405 -1493
-21 -2168 107 -189 264 -386 415 -521 322 -289 670 -460 1103 -541 105 -20
151 -23 375 -22 235 0 266 2 390 27 74 15 162 36 195 47 58 19 59 20 16 15
-435 -53 -815 1 -1191 169 -354 158 -665 419 -880 736 -63 94 -124 199 -119
204 16 14 445 139 460 134 6 -2 30 -62 53 -133 49 -148 98 -269 157 -388 47
-95 191 -339 196 -333 2 2 -5 23 -15 47 -31 72 -119 347 -151 470 -35 136 -84
370 -78 375 8 8 299 53 452 70 115 13 243 18 454 18 325 1 326 1 90 51 -317
67 -712 82 -990 39 l-36 -6 -11 113 c-12 114 -28 399 -28 494 0 95 16 380 28
494 l11 113 41 -6 c23 -3 116 -11 208 -17 276 -20 592 9 884 82 69 18 123 33
122 34 -2 1 -75 -2 -163 -7 -264 -14 -680 16 -965 68 -47 9 -88 19 -92 23 -9
8 38 245 77 388 34 126 85 286 123 388 16 44 33 89 37 100 14 42 -107 -153
-164 -264 -83 -160 -126 -262 -181 -429 -26 -79 -50 -145 -53 -148 -10 -10
-467 123 -467 136 0 3 25 48 55 98 167 283 429 546 719 721 247 149 546 253
846 292 121 16 397 16 519 0 51 -6 95 -10 98 -8 6 6 -188 53 -292 71 -88 15
-335 37 -385 35 -14 -1 -73 -6 -132 -10z m-1383 -1414 c50 -18 157 -50 238
-70 112 -29 147 -42 143 -52 -3 -8 -16 -78 -28 -156 -20 -125 -22 -179 -22
-462 0 -281 3 -337 22 -462 12 -78 25 -148 27 -156 4 -9 -29 -22 -127 -46 -73
-19 -188 -53 -256 -76 -67 -24 -124 -40 -126 -36 -15 23 -61 162 -86 256 -96
357 -91 729 15 1094 47 162 70 215 93 206 9 -4 58 -22 107 -40z"></path>
<path d="M1505 3266 c-48 -21 -70 -53 -70 -101 0 -32 6 -50 24 -69 75 -79 203
-36 203 69 0 80 -84 134 -157 101z"></path>
<path d="M9683 2633 c-10 -4 -13 -80 -13 -333 0 -356 -3 -340 55 -340 58 0 55
-16 55 340 0 290 -2 329 -16 334 -18 7 -63 7 -81 -1z"></path>
<path d="M10462 2632 c-9 -7 -12 -81 -10 -338 l3 -329 40 0 c38 0 40 2 45 33
l5 34 24 -26 c35 -37 101 -60 148 -51 61 11 100 41 129 101 22 46 26 67 26
142 0 103 -18 158 -68 201 -46 41 -107 49 -167 23 -24 -11 -48 -25 -51 -31
-19 -31 -26 -1 -26 113 0 104 -3 125 -16 130 -22 8 -67 7 -82 -2z m243 -308
c37 -15 62 -112 46 -183 -20 -92 -89 -118 -156 -60 -34 31 -35 32 -35 109 0
77 1 78 35 109 35 30 73 39 110 25z"></path>
<path d="M11493 2633 c-10 -4 -13 -80 -13 -333 0 -356 -3 -340 55 -340 58 0
55 -16 55 340 0 290 -2 329 -16 334 -18 7 -63 7 -81 -1z"></path>
<path d="M2418 2586 c-81 -22 -151 -89 -184 -177 -12 -29 -17 -77 -18 -144 -1
-95 1 -104 33 -169 39 -79 89 -118 178 -137 83 -17 184 4 226 45 16 16 24 85
12 98 -3 3 -26 -6 -52 -18 -60 -31 -144 -33 -191 -4 -60 37 -92 149 -73 255
13 68 43 118 87 141 44 24 131 15 182 -19 22 -14 43 -23 46 -20 3 4 6 25 6 48
0 51 -27 80 -95 101 -58 17 -94 17 -157 0z"></path>
<path d="M9243 2590 c-94 -20 -170 -80 -212 -170 -23 -48 -26 -67 -25 -155 1
-116 13 -153 75 -220 60 -65 124 -89 239 -89 67 1 111 6 150 20 l55 19 3 149
c2 101 -1 153 -9 162 -9 10 -40 14 -125 14 -113 0 -114 0 -120 -25 -3 -14 -3
-36 0 -50 6 -23 10 -25 71 -25 l65 0 0 -74 c0 -84 -2 -86 -93 -86 -98 0 -167
57 -187 156 -23 109 17 210 100 252 62 32 163 28 238 -9 28 -14 54 -24 57 -21
13 14 4 90 -13 105 -45 41 -184 65 -269 47z"></path>
<path d="M5717 2575 c-15 -15 -17 -48 -17 -310 l0 -294 35 -7 c19 -3 46 -3 60
0 25 6 25 8 25 110 l0 103 75 6 c134 10 205 63 227 168 20 97 -20 180 -104
214 -30 13 -80 20 -164 23 -103 4 -123 2 -137 -13z m255 -115 c28 -28 30 -35
26 -82 -7 -73 -38 -98 -119 -98 l-59 0 0 105 0 105 61 0 c54 0 64 -3 91 -30z"></path>
<path d="M7093 2543 c-8 -3 -13 -25 -13 -58 0 -53 0 -54 -32 -57 -32 -3 -33
-5 -33 -48 0 -43 1 -45 32 -48 l32 -3 3 -155 3 -156 32 -28 c38 -34 88 -46
140 -33 36 8 38 11 41 53 l3 45 -45 -3 c-42 -4 -47 -2 -56 23 -5 14 -10 78
-10 140 l0 114 53 3 52 3 3 48 3 47 -55 0 -56 0 0 54 c0 40 -4 55 -16 60 -18
7 -63 7 -81 -1z"></path>
<path d="M2858 2427 c-68 -20 -98 -42 -98 -75 0 -47 17 -53 68 -26 31 16 61
24 97 24 60 0 83 -18 91 -72 l6 -35 -80 -6 c-45 -3 -96 -13 -114 -20 -90 -38
-118 -142 -57 -212 54 -61 144 -69 221 -19 46 29 46 29 50 2 3 -25 26 -33 64
-24 l24 6 0 173 c0 201 -11 241 -73 270 -48 23 -142 30 -199 14z m162 -301 c0
-26 -7 -41 -31 -60 -53 -45 -139 -27 -139 28 0 45 35 65 113 66 l57 0 0 -34z"></path>
<path d="M3341 2429 c-76 -23 -118 -81 -108 -146 10 -57 34 -83 115 -120 83
-38 92 -46 92 -80 0 -45 -91 -58 -159 -23 -21 10 -41 16 -45 13 -3 -4 -6 -24
-6 -45 0 -35 3 -41 38 -55 21 -10 64 -17 102 -17 116 -1 180 51 180 146 0 63
-30 96 -125 138 -79 34 -102 63 -75 95 16 19 90 20 135 1 40 -17 45 -13 45 30
0 24 -7 38 -23 48 -29 20 -123 28 -166 15z"></path>
<path d="M3852 2425 c-19 -8 -48 -27 -65 -41 l-32 -27 -3 31 c-3 33 -29 48
-69 40 -17 -3 -18 -22 -21 -317 -2 -338 -4 -331 50 -331 56 0 58 3 58 121 0
60 4 109 8 109 5 0 17 -9 27 -20 25 -27 80 -43 123 -35 61 11 99 41 128 102
23 47 27 67 27 142 0 58 -6 99 -17 126 -41 96 -129 137 -214 100z m63 -101
c38 -15 61 -107 45 -180 -22 -98 -91 -125 -156 -60 -33 33 -34 37 -34 109 0
73 1 76 35 106 35 30 73 39 110 25z"></path>
<path d="M4528 2427 c-68 -20 -98 -42 -98 -75 0 -47 17 -53 68 -26 31 16 61
24 97 24 60 0 83 -18 91 -72 l6 -35 -80 -6 c-45 -3 -96 -13 -114 -20 -90 -38
-118 -142 -57 -212 54 -61 144 -69 221 -19 46 29 46 29 50 2 3 -25 26 -33 64
-24 l24 6 0 173 c0 201 -11 241 -73 270 -48 23 -142 30 -199 14z m162 -301 c0
-26 -7 -41 -31 -60 -53 -45 -139 -27 -139 28 0 45 35 65 113 66 l57 0 0 -34z"></path>
<path d="M5125 2422 c-22 -11 -49 -29 -59 -41 -26 -29 -34 -27 -38 12 -3 30
-5 32 -43 32 l-40 0 -3 -224 c-3 -241 -3 -241 50 -241 58 0 58 -1 58 160 l0
148 35 31 c43 38 92 42 121 10 17 -18 19 -40 22 -177 4 -166 5 -172 54 -172
59 0 58 -3 58 187 0 141 -3 182 -16 209 -34 72 -124 101 -199 66z"></path>
<path d="M6298 2427 c-68 -20 -98 -42 -98 -75 0 -47 17 -53 68 -26 31 16 61
24 97 24 60 0 83 -18 91 -72 l6 -35 -80 -6 c-45 -3 -96 -13 -114 -20 -90 -38
-118 -142 -57 -212 54 -61 144 -69 221 -19 46 29 46 29 50 2 3 -25 26 -33 64
-24 l24 6 0 173 c0 201 -11 241 -73 270 -48 23 -142 30 -199 14z m162 -301 c0
-26 -7 -41 -31 -60 -53 -45 -139 -27 -139 28 0 45 35 65 113 66 l57 0 0 -34z"></path>
<path d="M6873 2420 c-18 -11 -38 -29 -45 -40 -18 -28 -26 -25 -30 13 -3 30
-5 32 -43 32 l-40 0 -3 -224 c-3 -241 -3 -241 50 -241 58 0 58 0 58 154 l0
142 34 33 c31 30 39 33 75 28 45 -6 51 1 51 64 0 33 -4 41 -26 49 -35 14 -44
13 -81 -10z"></path>
<path d="M7595 2422 c-22 -11 -49 -29 -59 -41 -26 -29 -34 -27 -38 12 -3 30
-5 32 -43 32 l-40 0 -3 -224 c-3 -241 -3 -241 50 -241 58 0 58 -1 58 160 l0
148 35 31 c43 38 92 42 121 10 17 -18 19 -40 22 -177 4 -166 5 -172 54 -172
59 0 58 -3 58 187 0 141 -3 182 -16 209 -34 72 -124 101 -199 66z"></path>
<path d="M8066 2426 c-59 -22 -88 -48 -116 -102 -21 -41 -25 -62 -25 -139 0
-80 3 -95 27 -137 40 -67 97 -93 203 -92 108 2 159 20 163 57 6 52 -1 57 -54
41 -26 -8 -73 -14 -105 -14 -71 0 -107 25 -116 83 l-6 37 140 0 c95 0 143 4
151 12 15 15 15 80 2 130 -13 44 -51 93 -90 113 -43 22 -129 28 -174 11z m124
-86 c17 -9 40 -58 40 -86 0 -11 -22 -14 -95 -14 -94 0 -95 0 -95 24 0 14 12
38 26 55 21 25 33 31 66 31 21 0 48 -4 58 -10z"></path>
<path d="M8613 2420 c-18 -11 -38 -29 -45 -40 -18 -28 -26 -25 -30 13 -3 30
-5 32 -43 32 l-40 0 -3 -224 c-3 -241 -3 -241 50 -241 58 0 58 0 58 154 l0
142 34 33 c31 30 39 33 75 28 45 -6 51 1 51 64 0 33 -4 41 -26 49 -35 14 -44
13 -81 -10z"></path>
<path d="M10035 2426 c-61 -19 -93 -44 -123 -95 -24 -41 -27 -56 -27 -141 0
-86 3 -100 27 -142 45 -76 143 -111 250 -89 132 28 201 157 168 316 -17 81
-71 137 -148 154 -66 14 -96 13 -147 -3z m137 -100 c64 -48 62 -214 -3 -260
-27 -18 -91 -21 -121 -5 -28 15 -48 69 -48 133 0 101 34 146 109 146 25 0 54
-7 63 -14z"></path>
<path d="M11078 2427 c-68 -20 -98 -42 -98 -75 0 -47 17 -53 68 -26 31 16 61
24 97 24 60 0 83 -18 91 -72 l6 -35 -80 -6 c-45 -3 -96 -13 -114 -20 -90 -38
-118 -142 -57 -212 54 -61 144 -69 221 -19 46 29 46 29 50 2 3 -25 26 -33 64
-24 l24 6 0 173 c0 201 -11 241 -73 270 -48 23 -142 30 -199 14z m162 -301 c0
-26 -7 -41 -31 -60 -53 -45 -139 -27 -139 28 0 45 35 65 113 66 l57 0 0 -34z"></path>
<path d="M4213 2423 c-10 -3 -13 -59 -13 -228 0 -241 -1 -235 55 -235 56 0 55
-6 55 235 0 194 -2 224 -16 229 -18 7 -63 7 -81 -1z"></path>
<path d="M1492 1383 c-122 -60 -41 -239 92 -202 93 26 108 148 24 199 -40 24
-72 25 -116 3z"></path>
</g>
</svg>